<?xml version="1.0" encoding="UTF-8" standalone="no"?>
<!-- Created with Inkscape (http://www.inkscape.org/) -->

<svg
   xmlns:dc="http://purl.org/dc/elements/1.1/"
   xmlns:cc="http://creativecommons.org/ns#"
   xmlns:rdf="http://www.w3.org/1999/02/22-rdf-syntax-ns#"
   xmlns:svg="http://www.w3.org/2000/svg"
   xmlns="http://www.w3.org/2000/svg"
   xmlns:sodipodi="http://sodipodi.sourceforge.net/DTD/sodipodi-0.dtd"
   xmlns:inkscape="http://www.inkscape.org/namespaces/inkscape"
   width="512"
   height="512"
   viewBox="0 0 135.46666 135.46667"
   version="1.1"
   id="svg27"
   inkscape:version="0.92.3 (2405546, 2018-03-11)"
   sodipodi:docname="my-avatar-ver-2.svg">
  <defs
     id="defs21" />
  <sodipodi:namedview
     id="base"
     pagecolor="#ffffff"
     bordercolor="#666666"
     borderopacity="1.0"
     inkscape:pageopacity="0.0"
     inkscape:pageshadow="2"
     inkscape:zoom="3.4394531"
     inkscape:cx="216.74957"
     inkscape:cy="256"
     inkscape:document-units="mm"
     inkscape:current-layer="layer1"
     showgrid="false"
     units="px"
     inkscape:window-width="3840"
     inkscape:window-height="2116"
     inkscape:window-x="0"
     inkscape:window-y="0"
     inkscape:window-maximized="0" />
  <metadata
     id="metadata24">
    <rdf:RDF>
      <cc:Work
         rdf:about="">
        <dc:format>image/svg+xml</dc:format>
        <dc:type
           rdf:resource="http://purl.org/dc/dcmitype/StillImage" />
        <dc:title></dc:title>
      </cc:Work>
    </rdf:RDF>
  </metadata>
  <g
     inkscape:label="レイヤー 1"
     inkscape:groupmode="layer"
     id="layer1"
     transform="translate(0,-161.53332)"
     style="display:inline">
    <g
       id="g200"
       transform="translate(0,0.52916667)">
      <path
         style="fill:#b07ce0;stroke-width:0.26458332"
         d="m 28.320338,249.47633 c -0.299064,-0.22027 -0.347784,-4.47514 -0.290838,-25.4 l 0.0684,-25.13542 6.217708,-0.13229 6.217708,-0.13229 0.0687,-6.08542 c 0.05316,-4.70859 0.148746,-6.14527 0.422492,-6.35 0.219133,-0.16388 2.685393,-0.23579 6.479735,-0.18895 l 6.125945,0.0756 v 6.33572 6.33572 l -6.283853,0.0709 -6.283854,0.0709 v 18.91771 18.91771 l 5.919811,0.0713 c 4.144086,0.0499 6.029007,-0.0193 6.283854,-0.23083 0.299526,-0.24859 0.364042,-2.50016 0.364042,-12.70515 v -12.40302 h 6.35 6.35 v 12.40302 c 0,10.20499 0.06452,12.45656 0.364043,12.70515 0.254846,0.2115 2.139767,0.28074 6.283855,0.23083 l 5.91981,-0.0713 v -18.9176 -18.91771 l -6.28385,-0.0709 -6.283858,-0.0709 v -6.33572 -6.33572 l 6.125948,-0.0756 c 3.79434,-0.0468 6.2606,0.0251 6.47974,0.18895 0.27374,0.20473 0.36933,1.64141 0.42249,6.35 l 0.0687,6.08542 6.21771,0.13229 6.21771,0.13229 0.0675,25.20936 c 0.0536,20.02751 -7.9e-4,25.23546 -0.26458,25.33637 -0.69489,0.26582 -62.983902,0.25568 -63.345053,-0.0103 z"
         id="path206"
         inkscape:connector-curvature="0" />
      <path
         style="fill:#4d4d4d;stroke-width:0.26458332"
         d="m 33.124986,296.51403 c -0.582083,-0.0602 -1.171443,-0.22063 -1.309687,-0.35643 -0.138245,-0.13579 -0.418878,-0.2469 -0.623631,-0.2469 -0.888762,0 -3.883243,-1.73395 -5.367299,-3.10792 -6.779576,-6.27669 -8.912438,-18.30824 -5.124358,-28.90666 0.39009,-1.09141 1.359212,-3.20284 2.153606,-4.69207 0.794394,-1.48924 1.379461,-2.81269 1.300148,-2.94103 -0.07931,-0.12832 -1.135432,-0.78965 -2.346933,-1.4696 -4.931283,-2.76768 -10.04083,-7.43756 -12.9939871,-11.87589 -2.8835286,-4.33367 -5.4608796,-10.82429 -6.3259376,-15.93078 -0.755765,-4.46133 -1.050936,-7.23492 -0.905989,-8.51317 0.939707,-8.28706 2.194865,-12.90219 5.058022,-18.59802 2.8097623,-5.5896 7.5162997,-11.81194 11.8695807,-15.69233 1.848606,-1.6478 2.170444,-2.09806 3.971497,-5.55625 6.726878,-12.91624 12.275939,-18.11864 17.807924,-16.69541 1.715444,0.44134 4.406894,1.81451 6.06621,3.09497 1.708436,1.31836 6.128678,5.70174 7.985662,7.91906 l 1.717291,2.05052 h 4.972111 4.972113 l 1.277078,-1.52135 c 2.025067,-2.41242 6.182739,-6.61302 7.915329,-7.99705 2.08631,-1.66661 4.65225,-3.04623 6.59537,-3.54615 5.62451,-1.44703 11.65738,4.36857 18.325214,17.66523 1.0758,2.1453 1.57838,2.77498 4.56388,5.71807 5.8352,5.75232 10.10766,12.03964 12.58258,18.51641 0.76173,1.99342 0.7084,1.95525 3.11854,2.23234 2.92182,0.33591 6.06433,2.69282 7.50659,5.63001 0.68316,1.39126 0.75364,1.79457 0.75364,4.31291 0,2.33955 -0.093,2.96608 -0.58915,3.96875 -1.71745,3.4708 -2.73553,4.54904 -5.00982,5.30588 -2.12836,0.70827 -2.73678,1.43499 -2.7315,3.26261 0.006,1.95194 0.58645,4.14218 2.11323,7.96916 3.3427,8.37862 4.19462,17.03943 2.50423,25.45844 -3.06704,15.27542 -13.0049,26.74226 -25.394347,29.30137 -1.802008,0.37222 -2.251167,0.58388 -3.290777,1.55075 -1.45912,1.35703 -2.64185,2.09995 -4.83347,3.0361 l -1.66213,0.70999 -27.781248,0.027 c -15.279687,0.0148 -28.257499,-0.0223 -28.839582,-0.0825 z m 57.67486,-5.63041 c 0.72523,-0.36381 2.04875,-1.4056 2.94114,-2.31511 1.45103,-1.47886 1.73366,-1.65364 2.67396,-1.65364 1.741716,0 5.092774,-0.98166 7.618354,-2.23172 8.0501,-3.98446 14.1032,-12.91411 16.33219,-24.09361 1.04879,-5.26019 0.73362,-12.5606 -0.77105,-17.86009 -0.67841,-2.38936 -2.23308,-6.08565 -2.55818,-6.08216 -0.16663,0.002 -0.93504,1.23228 -1.70759,2.73443 -0.77254,1.50214 -2.17394,3.7331 -3.1142,4.95768 -0.94027,1.22458 -1.88576,2.4735 -2.1011,2.77538 -0.33557,0.47042 -0.34679,0.95847 -0.0785,3.4152 1.00078,9.16546 -3.07354,19.47911 -9.35106,23.67108 -0.883047,0.58968 -1.750071,1.07214 -1.926711,1.07214 -0.22092,0 -0.33754,-0.66549 -0.373627,-2.13219 -0.11207,-4.55492 -1.257676,-7.98913 -4.672666,-14.00739 -0.61931,-1.09141 -1.33727,-2.63778 -1.59546,-3.43639 -0.2582,-0.79861 -0.68815,-1.81064 -0.95546,-2.24896 -0.2673,-0.43832 -0.48645,-0.87241 -0.48699,-0.96465 -5.3e-4,-0.0922 0.68362,-0.43971 1.52037,-0.77216 5.400779,-2.14581 9.372054,-4.8301 12.951934,-8.75453 3.81585,-4.18313 5.43971,-7.00313 7.20185,-12.50676 1.48165,-4.62759 1.6903,-5.9788 1.69925,-11.00405 0.008,-4.4325 -0.029,-4.76578 -0.8644,-7.80521 -0.47996,-1.74625 -0.96018,-3.53218 -1.06717,-3.96875 -0.57338,-2.33961 -3.42734,-7.69812 -6.01199,-11.28788 -1.70044,-2.3617 -3.32662,-4.10929 -6.920964,-7.4377 -2.35776,-2.18331 -2.55473,-2.4538 -4.32274,-5.93619 -3.18597,-6.27527 -5.70893,-10.25115 -8.18398,-12.89699 -2.02345,-2.16308 -2.91917,-2.50356 -4.61394,-1.75389 -2.49619,1.10419 -6.57407,4.93591 -11.00743,10.34298 l -1.945318,2.37257 -8.069792,0.003 -8.069791,0.003 -1.846688,-2.31491 c -1.01568,-1.2732 -3.400817,-3.87229 -5.300303,-5.77575 -2.709746,-2.71541 -3.827354,-3.64483 -5.188828,-4.31508 -2.106107,-1.03683 -2.642592,-0.95628 -4.449185,0.668 -2.444591,2.1979 -5.356418,6.65311 -8.968715,13.7225 -1.886804,3.69255 -1.902266,3.71289 -4.926999,6.4823 -7.367292,6.74539 -12.084767,14.77973 -13.8264931,23.54791 -0.5531587,2.78471 -0.6053344,9.33871 -0.09689,12.17083 0.4578277,2.55018 1.9193891,7.16284 3.0687841,9.68502 3.354233,7.36038 10.112141,13.58494 17.920947,16.50659 1.631569,0.61045 1.966087,0.9053 1.591522,1.40279 -0.132157,0.17553 -0.700974,1.50977 -1.264042,2.96498 -0.56307,1.45521 -1.580578,3.67658 -2.261131,4.93639 -0.680554,1.25981 -1.600252,3.16481 -2.043772,4.23334 -3.648822,8.79069 -1.420787,20.96994 4.593109,25.10761 2.368174,1.62935 0.587078,1.54461 31.33306,1.49076 l 28.178125,-0.0493 z m 12.201324,-26.77358 c 1.781,-3.44408 3.2212,-11.59059 2.12353,-12.0118 -0.2001,-0.0768 -1.36095,0.50734 -2.57969,1.29805 -1.21873,0.79071 -2.713807,1.689 -3.322394,1.99621 -0.608587,0.30721 -1.183824,0.68364 -1.278304,0.83651 -0.0945,0.15287 0.592317,1.79168 1.526224,3.6418 0.933904,1.85012 1.830364,3.7508 1.992144,4.22375 0.37341,1.09165 0.97883,1.09774 1.53849,0.0155 z m 19.58449,-44.52185 c 1.25044,-1.30502 1.56259,-2.30752 1.36353,-4.37911 -0.19521,-2.03162 -2.20446,-4.226 -3.8719,-4.22864 -0.56161,-7.9e-4 -0.60848,0.0859 -0.46376,0.85891 0.37446,2 0.67586,4.95577 0.68347,6.70278 0.0118,2.70216 0.49167,2.9215 2.28866,1.04606 z"
         id="path202"
         inkscape:connector-curvature="0" />
    </g>
  </g>
  <g
     inkscape:groupmode="layer"
     id="layer2"
     inkscape:label="レイヤー 3"
     style="display:inline">
    <path
       style="fill:#f0f0f0;fill-opacity:1;stroke-width:0.29074389"
       d="m 139.90596,493.25284 c -13.1418,-0.3523 -18.57311,-0.95975 -21.80308,-2.43853 -3.24266,-1.48457 -8.65763,-5.78461 -11.8675,-9.424 -10.559575,-11.97257 -16.781346,-31.5977 -16.770371,-52.89824 0.0045,-8.77784 0.82084,-15.72238 2.777805,-23.63119 1.959556,-7.91929 3.99547,-12.93064 10.364496,-25.51191 4.80915,-9.49994 7.03119,-14.34039 10.11064,-22.02472 1.15348,-2.87837 2.75642,-6.63507 3.56209,-8.34825 1.42148,-3.0226 1.45056,-3.13663 0.9824,-3.85113 -0.59485,-0.90788 -2.6105,-1.93775 -7.88459,-4.02855 C 81.572016,330.0732 57.98112,308.705 44.992515,282.77726 41.149999,275.10686 36.52621,262.13304 33.635924,250.91198 30.923689,240.38218 30.5836,237.0826 30.594263,221.40148 c 0.01088,-16.00856 0.555109,-21.41323 3.213407,-31.91222 4.909041,-19.38834 14.061705,-38.34649 26.642314,-55.18491 6.416366,-8.58793 12.643309,-15.55167 21.057467,-23.54907 9.819084,-9.33274 13.277837,-12.915323 14.999626,-15.536655 0.89279,-1.359228 3.942433,-6.919705 6.776973,-12.356616 10.49232,-20.1252 17.48026,-31.82074 24.58081,-41.140262 5.82339,-7.643247 12.24731,-13.648588 15.88366,-14.848692 3.50531,-1.156858 10.77466,1.91756 17.48698,7.39576 3.56429,2.908956 19.48729,18.853544 25.29938,25.333682 2.43821,2.718456 6.48554,7.521408 8.99408,10.673226 l 4.56099,5.73058 30.56817,0.01161 30.56817,0.01161 5.19333,-6.323581 c 13.02606,-15.860992 22.65766,-26.055452 31.94177,-33.808405 4.05394,-3.385361 9.37103,-6.92237 12.28104,-8.169547 1.95871,-0.839464 2.58196,-0.967775 4.72747,-0.97325 3.59348,-0.0092 5.09747,0.868165 10.1968,5.948149 10.13344,10.095012 18.55434,22.980356 32.07001,49.072307 7.48186,14.443764 8.18072,15.448706 15.61213,22.449724 8.09312,7.62443 16.45483,15.96952 19.81673,19.77735 8.5661,9.70232 17.20849,23.07528 24.67869,38.18691 3.92722,7.94453 4.79434,10.31373 7.68055,20.98565 5.57464,20.61237 5.12082,17.69397 5.28887,34.01086 0.22373,21.72245 -0.35875,26.35006 -5.33951,42.42059 -7.57964,24.45587 -14.93718,36.81667 -32.21893,54.12833 -3.47689,3.48291 -7.77522,7.44645 -9.95912,9.18338 -9.40861,7.48308 -19.19034,13.1985 -31.48323,18.39552 -2.95832,1.25066 -6.20758,2.67612 -7.22059,3.16768 -2.20547,1.07017 -2.21166,1.18815 -0.24705,4.70618 1.13425,2.03114 2.06934,4.24018 4.61352,10.89895 1.07023,2.80108 3.55845,7.89517 5.90013,12.07924 9.50133,16.97677 14.03868,28.35684 15.82493,39.69021 0.71723,4.55063 0.84129,5.85197 1.19019,12.48495 0.329,6.25477 0.59692,7.55934 1.55248,7.55934 1.22549,0 7.38004,-3.78639 11.28886,-6.94509 7.43935,-6.01168 14.54054,-15.17968 19.84295,-25.61823 5.91818,-11.65078 9.54422,-23.70763 11.41083,-37.94208 0.69662,-5.31212 0.70508,-18.70015 0.0157,-24.67814 -0.66168,-5.73698 -0.65671,-9.05274 0.0154,-10.36772 0.28298,-0.55352 2.742,-3.95016 5.4645,-7.54812 6.92282,-9.14897 9.82595,-13.6302 14.8801,-22.96877 1.51454,-2.79841 3.47459,-6.19544 4.35563,-7.54896 l 1.60188,-2.46094 0.58047,0.71648 c 1.49745,1.84831 5.83323,12.09584 8.04495,19.01409 4.14952,12.97969 6.14914,27.53485 6.15385,44.79381 0.003,10.98448 -0.61896,18.02177 -2.36398,26.74844 -3.16443,15.82473 -9.29508,32.60216 -16.67992,45.6468 -2.90837,5.13741 -8.09777,12.83006 -11.66993,17.29926 -3.94069,4.93029 -12.59674,13.58681 -16.98768,16.98863 -9.81743,7.60589 -20.18559,12.92563 -31.69108,16.26026 -4.88601,1.4161 -8.73709,2.17421 -12.14385,2.39058 -5.00408,0.31781 -5.03941,0.33805 -11.76992,6.74421 -5.0479,4.80463 -7.92112,6.95102 -12.15653,9.08136 l -3.36164,1.69082 -94.76444,0.14494 c -52.12038,0.0797 -98.68942,0.0397 -103.4867,-0.0889 z m 195.7219,-158.42089 c 5.94484,-0.10522 10.8913,-0.27385 10.99216,-0.37471 0.80428,-0.80425 0.8756,-9.58998 0.80681,-99.36415 -0.0386,-50.43668 -0.10406,-91.73111 -0.14537,-91.76539 -0.0677,-0.0562 -44.37478,-1.02957 -46.19074,-1.01476 l -0.7596,0.006 -0.20331,-16.64509 c -0.21793,-17.84183 -0.52512,-26.187613 -1.05479,-28.656084 -0.26421,-1.231367 -0.48767,-1.612663 -1.10298,-1.882087 -0.91317,-0.399851 -34.34947,-0.674258 -42.42069,-0.34814 l -5.01534,0.202646 v 23.909045 23.90905 l 5.71627,0.19144 c 3.14394,0.1053 9.06421,0.19164 13.15616,0.19188 4.09194,2.3e-4 12.24807,0.0869 18.12474,0.19253 l 10.68483,0.19211 v 71.2968 71.29681 l -9.66723,0.21064 c -10.64499,0.23195 -34.20231,0.0357 -35.47957,-0.29557 -0.4446,-0.11531 -0.93643,-0.44897 -1.09297,-0.74147 -0.81668,-1.52598 -0.92793,-6.76711 -1.06254,-50.05915 l -0.13809,-44.41113 h -24.10717 -24.10717 l -0.008,38.74162 c -0.008,39.48136 -0.23342,52.9335 -0.92255,55.00885 -0.28426,0.85606 -0.59468,1.20755 -1.25037,1.41576 -1.20004,0.38107 -23.76889,0.59765 -35.54344,0.34109 L 155.17,286.17005 v -71.29681 -71.2968 l 10.68484,-0.19211 c 5.87666,-0.10565 14.0328,-0.1923 18.12474,-0.19253 4.09195,-2.4e-4 10.01222,-0.0866 13.15616,-0.19188 l 5.71628,-0.19144 V 118.89943 94.990385 l -5.01534,-0.202646 c -8.07122,-0.326118 -41.50752,-0.05171 -42.42069,0.34814 -0.61087,0.267478 -0.83868,0.650481 -1.09342,1.838304 -0.5186,2.418126 -0.85294,11.509307 -1.06618,28.990607 l -0.19949,16.35435 -0.76059,-0.006 c -1.27143,-0.0103 -46.11307,0.9498 -46.16548,0.9885 -0.0269,0.0198 -0.13769,37.84713 -0.24629,84.06067 -0.19047,81.04716 -0.0526,102.68399 0.67505,105.97577 0.21474,0.9714 0.297,1.02789 1.81235,1.24424 4.54235,0.64853 193.02488,0.85574 227.25592,0.24983 z"
       id="path103"
       inkscape:connector-curvature="0"
       transform="scale(0.26458333)" />
    <path
       style="fill:#f0f0f0;fill-opacity:1;stroke-width:0.29074389"
       d="m 456.62408,225.83643 c -1.16122,-0.25622 -1.47674,-1.90651 -1.87768,-9.82101 -0.42875,-8.46357 -0.89844,-13.25956 -2.0392,-20.82249 -0.42556,-2.82129 -0.69306,-5.33986 -0.59445,-5.59682 0.25969,-0.67676 2.9863,-0.61366 4.91121,0.11366 2.10762,0.79635 5.14152,3.14777 6.861,5.31761 2.9862,3.76833 4.22984,6.95773 4.56691,11.71211 0.27219,3.83924 -0.16921,6.67558 -1.44467,9.28322 -2.19715,4.49201 -8.3113,10.27086 -10.38312,9.81372 z"
       id="path109"
       inkscape:connector-curvature="0"
       transform="scale(0.26458333)" />
  </g>
</svg>
