<svg xmlns="http://www.w3.org/2000/svg" width="1200" height="1200"><path d="M336.6 1123.4a150.6 150.6 0 0 1-119.1-100.8c-7.4-22-6.9-6.5-7.2-208.9-.3-159.3-.5-181.8-1.8-182.3-2-.8-16.6 5.1-34 13.7-7.8 3.8-15 6.9-16.1 6.9-2.7 0-21.4-11.2-33.3-20-40-29.5-56.4-61.1-48.2-93.2 4-15.2 12.3-28.3 28.2-43.8l9.7-9.6-1-5c-1.6-8.8-2.5-30.6-1.7-43.2 2.8-44 21.5-87 55.2-127l7-8.3-12.3-74.5c-11.5-69.6-12.2-74.7-11-79a22.9 22.9 0 0 1 24.3-17.2c5.9.4 9.8 2.3 74.9 36.1 37.8 19.6 69 35.7 69.4 35.7.4 0 6.9-2.4 14.3-5.4 84.5-33.8 181-50.3 281.6-48.3 42 1 72.2 3.6 110.5 9.8a691.8 691.8 0 0 1 137.3 37.4c6.4 2.5 12.2 4.5 13 4.5.7 0 32.6-16.2 70.8-36 44.5-23.2 71.2-36.5 74.5-37.2 13.1-2.9 27.4 8.4 27.4 21.6 0 2.3-5.5 37.2-12.2 77.6l-12.2 73.6 8.5 10a230.6 230.6 0 0 1 52.4 105.7c3.3 17.8 3.6 48.7.6 64.1l-.9 4.9 10.7 10.6c19.4 19.2 28 35.8 28.8 55.6.6 13-1.3 22.4-7.1 34-7.9 15.9-22 31.3-42.7 46.5-12 9-30.7 20-33.7 20a92 92 0 0 1-16-7C964 614 855.4 587.9 744 577.2a1347 1347 0 0 0-146-6.5c-53.2 0-85.8 1.4-87.1 3.6-.5.7-.9 125-.9 276V1125l-82.3-.1c-64.6 0-84.1-.4-91.1-1.5zm216-299.2c-.9-1.5-2.8-13.2-2.3-14.4.2-.8 3.1-2.2 6.3-3.2a55.3 55.3 0 0 0 19.1-9.8c1.2-1.3 3.2-4.6 4.5-7.3 2.2-4.8 2.3-6 2.3-28.5v-23.5L570 737l-12.5-.5-.3-7.3c-.3-6.3 0-7.2 1.5-7.3 5-.5 43-.6 44.5-.2 1.7.4 1.8 2.7 1.8 30.2 0 16.4-.5 32.2-1 35.1-3.3 17.2-16.8 29.8-38.5 36-7.3 2-12 2.5-12.8 1.3zm94.6-27.2c-11.9-1.7-19.2-10.2-19.2-22.5 0-8.4 1.6-12 7.5-17.3 6-5.3 12.6-7.3 26.5-8.1 11.5-.7 12.4-1.3 10-7-2.4-5.9-13-7.7-25.8-4.5-7.6 2-8 1.6-10.7-6.5-2.3-7-1.7-7.5 11-10.2 7.7-1.6 12-2 19-1.6 11.9.7 15.8 2 21.3 7 7 6.5 7.5 8.3 8.1 32.4.6 19.5.8 21.3 2.5 22.6 1.8 1.3 1.9 1.8.7 5.8-2.3 8.3-3.2 9.9-5.6 9.9-3.8 0-8.9-2.2-12-5.1a13.7 13.7 0 0 0-3.9-2.9c-.4 0-2.2 1.1-4 2.5a35 35 0 0 1-25.4 5.5zm19.5-17.5c4.7-2 6.5-5.3 6.1-11.7l-.3-5.3-4.2-.3c-9.4-.7-17.3 3.8-17.3 9.8 0 4.3 1.6 7 5.3 8.5 3.3 1.4 4.7 1.3 10.4-1zm163.2 17.4c-3.7-.4-8.7-1.6-11-2.7a43 43 0 0 1-17-16.5c-4.8-11-4.5-27.8.6-38.2a43 43 0 0 1 19.2-18 48 48 0 0 1 34.9 2c7 4.1 7.2 4.8 2.9 11.1-2.2 3.1-4.5 5.9-5.3 6.2-.8.3-3.3-.4-5.7-1.6-7-3.4-12.3-3.7-17.4-1-6.4 3.3-8.5 7.9-9 19.4-.4 11.7 2 17.6 8.3 20.5 5.6 2.5 9 2.3 16.6-1 6-2.7 6.6-2.8 8.2-1.4 2.3 2 7.8 10.6 7.8 12.1 0 1.4-7.1 5.6-12.5 7.5-5.5 2-12.8 2.5-20.6 1.6zm149.3 0c-11.9-1.6-19.2-10.1-19.2-22.4 0-8.4 1.6-12 7.5-17.3 6-5.3 12.6-7.3 26.5-8.1 11.5-.7 12.4-1.3 10-7-2.4-5.9-13-7.7-25.8-4.5-7.6 2-8 1.6-10.7-6.5-2.3-7-1.7-7.5 11-10.2 7.7-1.6 12-2 19-1.6 11.9.7 15.8 2 21.3 7 7 6.5 7.5 8.3 8.1 32.4.6 19.5.8 21.3 2.5 22.6 1.8 1.3 1.9 1.8.7 5.8-2.3 8.3-3.2 9.9-5.6 9.9-3.8 0-8.9-2.2-12-5.1a13.7 13.7 0 0 0-3.9-2.9c-.4 0-2.2 1.1-4 2.5a35 35 0 0 1-25.4 5.5zm19.5-17.4c4.7-2 6.5-5.3 6.1-11.7l-.3-5.3-4.2-.3c-9.4-.7-17.3 3.8-17.3 9.8 0 4.3 1.6 7 5.3 8.5 3.3 1.4 4.7 1.3 10.4-1zm-288.8-15.7l-.3-35.5c-.3-5.8.4-6.6 6-6.8 7-.3 10.3.5 11 2.6.8 2.7 2.3 2.4 6-1.3 2.7-2.5 4.4-3.2 8.8-3.6 5.3-.4 5.7-.3 9.2 3.2 2 2 3.8 3.6 4 3.6.3 0 2.2-1.4 4.4-3 3-2.5 5-3.3 9.6-3.6 7.4-.6 11.6 1.7 14.4 7.9 1.8 3.9 2 6.8 2 36V795l-9.3-.3-9.2-.3-.5-28.5c-.3-15.7-.7-28.6-.8-28.8-1-1-5.8.3-7.7 2.3l-2.5 2.4V795h-15v-26.4c0-14.8-.4-27.6-1-29-1.1-3-4.3-3.4-7.5-1-1.9 1.4-2 3-2.5 28.7l-.5 27.2-9.3.3-9.2.3zm171.8 30.6c-1-1-.9-99.6 0-101 .8-1.2 20.1-3.6 21.5-2.7.5.2.8 8.3.8 17.9 0 14.5.2 17.4 1.4 17.4.8 0 1.8-.5 2.1-1 .4-.6 2.5-2 4.8-3.2 3.3-1.7 6-2.2 12.3-2.2 7.1 0 8.5.2 12 2.6 2.5 1.6 5 4.4 6.3 7 2 4.2 2.1 5.9 2.1 35.1v30.8l-10.8-.3-10.7-.3-.5-27c-.3-14.8-.9-27.8-1.4-28.8-2-4-8.7-3.4-13.9 1.2l-3.2 3-.5 25.8-.5 25.8-10.6.3a50 50 0 0 1-11.2-.4zM581.9 704c-3.4-3.4-3.9-4.4-3.9-8.5 0-3.9.6-5.2 3.4-8.3 3.2-3.5 3.7-3.7 9.6-3.8 5.8 0 6.3.2 9.6 3.7 2.8 3.2 3.4 4.5 3.4 8.4 0 4-.5 5.1-3.9 8.5-3.5 3.5-4.4 3.9-9.1 3.9-4.7 0-5.6-.4-9.1-3.9z" fill="#f7eebb"/><path d="M336.6 1123.4a150.6 150.6 0 0 1-119.1-100.8c-7.4-22-6.9-6.5-7.2-208.9-.3-159.3-.5-181.8-1.8-182.3-2-.8-16.6 5.1-34 13.7-7.8 3.8-15 6.9-16.1 6.9-2.7 0-21.4-11.2-33.3-20C85 602.5 68.7 571 77 538.6c4-15.7 16.3-33.8 32.4-47.8 4.6-4 8-7.5 7.6-7.8-3.6-2.3-4.7-45.3-1.6-62a219 219 0 0 1 33-83c5.3-8 12.3-17.2 25.4-33.2l2.3-2.8-12-73c-6.7-40.2-12-74.5-12-76.3 0-11.4 12.8-21.9 24.6-20.1 2.6.4 28.8 13.4 73.4 36.6l69.4 36 15-6a705.7 705.7 0 0 1 221-47.3c25.3-1.5 88.5-.6 112 1.5 71.1 6.6 138 21.9 195.3 44.6l13.4 5.3 5.6-2.7c3-1.5 35-18 71-36.8 70.3-36.4 70.9-36.7 79.6-33.8a21.9 21.9 0 0 1 14.6 19.7c0 2.6-5.4 37.8-12 78l-12.2 73.3 7 8.3c31.2 37.1 47.2 69.6 54.8 111.7 3.1 16.8 2 59.8-1.6 62-.4.3 2.6 3.4 6.7 6.9 14.9 12.7 27 29.3 31.9 43.6a73.7 73.7 0 0 1 2 35.5c-4.4 21-21.3 42.9-48.7 63-12 9-30.7 20-33.7 20a92 92 0 0 1-16-7C964 614 855.4 587.9 744 577.2a1347 1347 0 0 0-146-6.5c-53.2 0-85.8 1.4-87.1 3.6-.5.7-.9 125-.9 276V1125l-82.3-.1c-64.6 0-84.1-.4-91.1-1.5zM184.4 445a670.7 670.7 0 0 1 75.1-27 907.8 907.8 0 0 1 67.1-17c52.6-11 118.7-19.4 183.9-23.6 29-1.8 120.2-2.7 151-1.4 61.5 2.6 119.7 8.8 180.5 19.1 72.5 12.3 151.6 36.8 196.8 61l9.2 4.9-.6-2.8c-14.9-63-98.8-113.7-250.9-151.6-36.8-9.1-123.6-26.6-132.3-26.6-1.5 0-4 .8-5.7 1.8-1.6 1-5.1 2.7-7.8 3.7-2.6 1-4.7 2.1-4.7 2.5 0 .4 5.6 5.5 12.3 11.4a97.4 97.4 0 0 1 13.5 13.2c4.1 9-4.6 19.3-13.8 16.5-2.2-.7-10.9-7.6-23.5-18.6l-20-17.5h-27l-20 17.5a155.1 155.1 0 0 1-23.5 18.6c-9.2 2.8-18-7.6-13.8-16.5.6-1.4 6.7-7.4 13.4-13.2 6.8-5.8 12.2-11 11.9-11.4-.3-.4-1.7-1-3.2-1.5-1.6-.3-5.4-2-8.6-3.6-3.2-1.6-7.1-2.9-8.7-2.9-1.7 0-16.6 2.5-33.2 5.5-109 20-191.3 44-248.6 72.5-58.1 29-91.8 62.5-100.6 100.2l-.6 2.8 9.2-5c5.1-2.7 15.5-7.6 23.2-11zm51.1-203a610 610 0 0 0 31.3-23.6c3.7-4.2 2.5-12.6-2.3-15.8-1.3-.8-17.5-9.5-36.1-19.2-30-15.7-34.5-17.8-38.7-17.8-4.3 0-5.2.3-7.8 3.2a9.5 9.5 0 0 0-2.9 7.3c0 4.6 11.5 74.8 13.1 79.6 1.5 4.6 5.3 7.3 10.3 7.3 3.7 0 6.7-1.9 33.1-21zm767.8 11.7a16 16 0 0 0 4.5-5.4c1.6-3.9 11.4-62.7 11.4-68.5a14 14 0 0 0-14.7-14.8c-4.2 0-8.3 1.8-33.9 15-35.6 18.5-37.5 20.2-36.6 31 .1 1.4.8 3.7 1.6 5.2 1.3 2.6 45 35.2 52.4 39a14.7 14.7 0 0 0 15.3-1.5zM509 208.5c22.3-3 33.7-9 30-15.9-5-9.6-42.4-15.3-73-11.1-22.3 3-33.7 9-30 15.9 5 9.6 42.5 15.3 73 11.1zm225 0c22.3-3 33.7-9 30-15.9-5-9.6-42.4-15.3-73-11.1-22.3 3-33.7 9-30 15.9 5 9.6 42.5 15.3 73 11.1zM552.7 824.3c-1-1.6-3-13.3-2.4-14.5.2-.8 3.1-2.2 6.3-3.2a55.3 55.3 0 0 0 19.1-9.8c1.2-1.3 3.2-4.6 4.5-7.3 2.2-4.8 2.3-6 2.3-28.5v-23.5L570 737l-12.5-.5-.3-7.3c-.3-6.3 0-7.2 1.5-7.3 5-.5 43-.6 44.5-.2 1.7.4 1.8 2.7 1.8 30.2 0 16.4-.5 32.2-1 35.1-3.3 17.2-16.8 29.8-38.5 36-7.3 2-12 2.5-12.8 1.3zm94.5-27.3c-11.9-1.7-19.2-10.2-19.2-22.5 0-8.4 1.6-12 7.5-17.3 6-5.3 12.6-7.3 26.5-8.1 11.5-.7 12.4-1.3 10-7-2.4-5.9-13-7.7-25.8-4.5-7.6 2-8 1.6-10.7-6.5-2.3-7-1.7-7.5 11-10.2 7.7-1.6 12-2 19-1.6 11.9.7 15.8 2 21.3 7 7 6.5 7.5 8.3 8.1 32.4.6 19.5.8 21.3 2.5 22.6 1.8 1.3 1.9 1.8.7 5.8-2.3 8.3-3.2 9.9-5.6 9.9-3.8 0-8.9-2.2-12-5.1a13.7 13.7 0 0 0-3.9-2.9c-.4 0-2.2 1.1-4 2.5a35 35 0 0 1-25.4 5.5zm19.5-17.5c4.7-2 6.5-5.3 6.1-11.7l-.3-5.3-4.2-.3c-9.4-.7-17.3 3.8-17.3 9.8 0 4.3 1.6 7 5.3 8.5 3.3 1.4 4.7 1.3 10.4-1zm163.2 17.4c-3.7-.4-8.7-1.6-11-2.7a43 43 0 0 1-17-16.5c-4.8-11-4.5-27.8.6-38.2a43 43 0 0 1 19.2-18 48 48 0 0 1 34.9 2c7 4.1 7.2 4.8 2.9 11.1-2.2 3.1-4.5 5.9-5.3 6.2-.8.3-3.3-.4-5.7-1.6-7-3.4-12.3-3.7-17.4-1-6.4 3.3-8.5 7.9-9 19.4-.4 11.7 2 17.6 8.3 20.5 5.6 2.5 9 2.3 16.6-1 6-2.7 6.6-2.8 8.2-1.4 2.3 2 7.8 10.6 7.8 12.1 0 1.4-7.1 5.6-12.5 7.5-5.5 2-12.8 2.5-20.6 1.6zm149.3 0c-11.9-1.6-19.2-10.1-19.2-22.4 0-8.4 1.6-12 7.5-17.3 6-5.3 12.6-7.3 26.5-8.1 11.5-.7 12.4-1.3 10-7-2.4-5.9-13-7.7-25.8-4.5-7.6 2-8 1.6-10.7-6.5-2.3-7-1.7-7.5 11-10.2 7.7-1.6 12-2 19-1.6 11.9.7 15.8 2 21.3 7 7 6.5 7.5 8.3 8.1 32.4.6 19.5.8 21.3 2.5 22.6 1.8 1.3 1.9 1.8.7 5.8-2.3 8.3-3.2 9.9-5.6 9.9-3.8 0-8.9-2.2-12-5.1a13.7 13.7 0 0 0-3.9-2.9c-.4 0-2.2 1.1-4 2.5a35 35 0 0 1-25.4 5.5zm19.5-17.4c4.7-2 6.5-5.3 6.1-11.7l-.3-5.3-4.2-.3c-9.4-.7-17.3 3.8-17.3 9.8 0 4.3 1.6 7 5.3 8.5 3.3 1.4 4.7 1.3 10.4-1zm-288.8-15.7l-.3-35.5c-.3-5.8.4-6.6 6-6.8 7-.3 10.3.5 11 2.6.8 2.7 2.3 2.4 6-1.3 2.7-2.5 4.4-3.2 8.8-3.6 5.3-.4 5.7-.3 9.2 3.2 2 2 3.8 3.6 4 3.6.3 0 2.2-1.4 4.4-3 3-2.5 5-3.3 9.6-3.6 7.4-.6 11.6 1.7 14.4 7.9 1.8 3.9 2 6.8 2 36V795l-9.3-.3-9.2-.3-.5-28.5c-.3-15.7-.7-28.6-.8-28.8-1-1-5.8.3-7.7 2.3l-2.5 2.4V795h-15v-26.4c0-14.8-.4-27.6-1-29-1.1-3-4.3-3.4-7.5-1-1.9 1.4-2 3-2.5 28.7l-.5 27.2-9.3.3-9.2.3zm171.8 30.6c-1-1-.9-99.6 0-101 .8-1.2 20.1-3.6 21.5-2.7.5.2.8 8.3.8 17.9 0 14.5.2 17.4 1.4 17.4.8 0 1.8-.5 2.1-1 .4-.6 2.5-2 4.8-3.2 3.3-1.7 6-2.2 12.3-2.2 7.1 0 8.5.2 12 2.6 2.5 1.6 5 4.4 6.3 7 2 4.2 2.1 5.9 2.1 35.1v30.8l-10.8-.3-10.7-.3-.5-27c-.3-14.8-.9-27.8-1.4-28.8-2-4-8.7-3.4-13.9 1.2l-3.2 3-.5 25.8-.5 25.8-10.6.3a50 50 0 0 1-11.2-.4zM581.9 704c-3.4-3.4-3.9-4.4-3.9-8.5 0-3.9.6-5.2 3.4-8.3 3.2-3.5 3.7-3.7 9.6-3.8 5.8 0 6.3.2 9.6 3.7 2.8 3.2 3.4 4.5 3.4 8.4 0 4-.5 5.1-3.9 8.5-3.5 3.5-4.4 3.9-9.1 3.9-4.7 0-5.6-.4-9.1-3.9z" fill="#e0c4e3"/><path d="M348 1123a147.7 147.7 0 0 1-120.3-80.6 167.8 167.8 0 0 1-14-40.9c-2-11-2-12.2-2.4-191.8l-.4-180.7 4.6-2a793 793 0 0 1 59.7-18.9l17.3-4.6.3-96.2c.2-90.4.3-96.3 2-97.2A747 747 0 0 1 361 396c.5 0 .9 37.2.9 96 0 52.7.4 96.1.8 96.4.4.2 10.2-1 21.7-2.8 20.3-3.2 40.7-5.8 74-9.4l16-1.7.3-96c.1-52.7.5-96.2 1-96.7.4-.4 11.5-1.4 24.7-2.2 41.4-2.6 41.4-2.6 42.4-.7.5.9.9 43.6.9 94.9 0 76.3-.2 93.5-1.3 94.6-1 .9-6 1.5-16 2-8 .4-15.3 1-16 1.3-1.3.4-1.5 39.8-1.7 276.2l-.3 275.6-76 .1c-41.8 0-79.8-.2-84.6-.6zm206-301.1c-.6-1-1.2-4.2-1.3-7l-.2-5 5.5-1.8c12.9-4.1 20-9.6 24.2-18.6 2.1-4.7 2.3-6.5 2.6-28.1.3-20.4.2-23.3-1.3-24.7-1.3-1.4-3.8-1.7-13-1.7h-11.3l-.4-5.6c-.2-3.3.1-5.8.7-6 .6-.3 10.7-.3 22.5-.2l21.5.3v30c0 31.8-.5 35.7-5.5 45.6-5.3 10.3-20.5 19.6-38.9 23.8-3.6.8-4.3.6-5.2-1zm89.7-27.5c-10.6-3.3-16.1-13.5-13.6-25.5.9-4.3 2-6.3 5.4-9.5 5.5-5.4 11.7-7.4 24-8 5.5-.3 11-.7 12.2-1 3-.6 3.8-4.2 2-8.8-3-6.9-13.2-9.3-26.2-6.1l-7 1.5c-1 0-4.5-9-4.5-11.2 0-.3 3.3-1.4 7.3-2.4 5-1.3 10.8-1.9 19.2-1.9 13.5 0 17.8 1 23.2 5.8 6 5.3 6.6 7.8 7.2 31.3.5 18.7.8 21.4 2.4 23.2 1.8 2 1.8 2.3.3 7.6-1.2 4.2-2.1 5.6-3.5 5.6a20 20 0 0 1-11.6-5.1 14.7 14.7 0 0 0-3.8-2.9 26 26 0 0 0-5 3c-4.6 3.2-14 6-19.7 6-2-.1-5.7-.8-8.3-1.6zm22.6-12.8c1.8-.7 4.5-2.8 6-4.5 2.2-2.7 2.7-4.2 2.7-8.6 0-6.5-1.6-8.5-6.9-8.5-10 0-19.1 5.7-19.1 12 0 9 8 13.5 17.3 9.6zm161 13.4a33.2 33.2 0 0 1-24.4-19.8 37.9 37.9 0 0 1-2.3-16.2c0-13.8 2.4-20.1 10.4-28.2 4.8-4.8 6.8-6 13-7.9 12.2-3.7 27.4-1.8 35.5 4.4 2 1.5 1.9 1.6-1.5 6.6-2 2.8-4 5.1-4.6 5.1a25 25 0 0 1-5.5-2c-5.3-2.4-13.8-2.6-17.9-.5-7 3.6-10.5 12.5-9.8 24.7.4 8.6 3 14.2 7.8 17.6 4.7 3.2 13.4 3 20-.3 2.7-1.4 5.1-2.5 5.3-2.5.3 0 2.2 2.5 4.3 5.6l3.9 5.6-2.3 1.8c-6.2 5-22.2 8-32 6zm148.4-.6c-10.6-3.3-16.1-13.5-13.6-25.5.9-4.3 2-6.3 5.4-9.5 5.5-5.4 11.7-7.4 24-8 5.5-.3 11-.7 12.2-1 3-.6 3.8-4.2 2-8.8-3-6.9-13.2-9.3-26.2-6.1l-7 1.5c-1 0-4.5-9-4.5-11.2 0-.3 3.3-1.4 7.3-2.4 5-1.3 10.8-1.9 19.2-1.9 13.5 0 17.8 1 23.2 5.8 6 5.3 6.6 7.8 7.2 31.3.5 18.7.8 21.4 2.4 23.2 1.8 2 1.8 2.3.3 7.6-1.2 4.2-2.1 5.6-3.5 5.6a20 20 0 0 1-11.6-5.1 14.7 14.7 0 0 0-3.8-2.9 26 26 0 0 0-5 3c-4.6 3.2-14 6-19.7 6-2-.1-5.7-.8-8.3-1.6zm22.6-12.8c1.8-.7 4.5-2.8 6-4.5 2.2-2.7 2.7-4.2 2.7-8.6 0-6.5-1.6-8.5-6.9-8.5-10 0-19.1 5.7-19.1 12 0 9 8 13.5 17.3 9.6zm-286.8 11.2c-.3-.7-.4-16.6-.3-35.3l.3-34 6.3-.3c6.2-.3 6.3-.3 7.3 2.8.6 1.6 1.6 3 2.2 3 .6 0 2.8-1.6 4.8-3.6 3-3 4.7-3.8 8.8-4.2 5.6-.5 9.5 1.2 10.6 4.8.9 2.8 3 2.5 7.6-1.2 3-2.4 5.1-3.2 9.2-3.6 7.5-.6 11 1.4 13.4 7.5 1.6 4.3 1.8 8 1.8 34.8v30h-15l-.5-27.6c-.5-29.5-.8-30.9-5.5-30.9-1.3 0-3.7 1.2-5.4 2.6l-3 2.6-.3 26.6-.3 26.7h-12l-.5-28.3c-.4-23.7-.7-28.4-2-29.2-2.6-1.6-5.8-1.1-8.7 1.4l-2.8 2.4-.5 26.9-.5 26.8-7.3.3c-5.2.2-7.4 0-7.7-1zm172.2.6c-.4-.4-.7-22.9-.7-50v-49.2l4.3-.5 9.5-1.2 5.2-.7V710c0 15.5.2 18.3 1.6 18.8.8.3 2.5-.3 3.7-1.5 3.8-3.4 9-5.4 15.3-6 7.7-.6 12.5 1 16.3 5.3 4.5 5.2 5.2 10.7 4.9 40.5l-.3 26.5h-18L925 767c-.4-23.2-.7-27-2.3-29.3-3.4-5.3-9.5-4.8-16 1.3l-4.2 3.9-.5 25.3-.5 25.3-8.5.3c-4.7.1-9 0-9.3-.4zM582.9 703a11.1 11.1 0 0 1-.5-14.8c2.2-2.5 3-2.8 8.6-2.8 5.5 0 6.4.3 8.6 2.8a11.1 11.1 0 0 1-.5 14.8c-2.5 2.5-3.7 2.9-8.1 2.9-4.4 0-5.6-.4-8-3zm-437.2-59.4c-49.4-29.7-73.2-63.2-68.6-96.3 2.7-19.5 11.9-35.1 32.3-54.7 5.8-5.6 8.7-9 8-9.5-4-2.4-5.3-44.4-2-62.2a219 219 0 0 1 33-83c5.3-8 12.3-17.2 25.4-33.2l2.3-2.8-12-73c-6.7-40.2-12-74.5-12-76.3 0-11.4 12.8-21.9 24.6-20.1 2.6.4 28.8 13.4 73.4 36.6l69.4 36 15-6a705.7 705.7 0 0 1 221-47.3c25.3-1.5 88.5-.6 112 1.5 71.1 6.6 138 21.9 195.3 44.6l13.4 5.3 5.6-2.7c3-1.5 35-18 71-36.8 70.3-36.4 70.9-36.7 79.6-33.8a21.9 21.9 0 0 1 14.6 19.7c0 2.6-5.4 37.8-12 78l-12.2 73.3 7 8.3c31.2 37.1 47.2 69.6 54.8 111.7 3.3 17.8 2 59.8-2 62.2-.6.4 2.2 4 8 9.5 16.2 16 23.7 26.2 28.4 39.3 12.4 33.8-2.2 67-42.8 97-13.4 10-32 21-35.2 21-1.4 0-6.6-2.2-11.5-4.8l-9-4.7-.3-95.7c-.2-76.3 0-95.8 1-95.8.7 0 6.4 2.7 12.7 6 6.3 3.3 12 6 12.8 6 1 0 1.1-.8.7-2.7-14.9-63-98.8-113.8-250.9-151.7-36.8-9.1-123.6-26.6-132.3-26.6-1.5 0-4 .8-5.7 1.8-1.6 1-5.1 2.7-7.8 3.7-2.6 1-4.7 2.1-4.7 2.5 0 .4 5.6 5.5 12.3 11.4a97.4 97.4 0 0 1 13.5 13.2c4.1 9-4.6 19.3-13.8 16.5-2.2-.7-10.9-7.6-23.5-18.6l-20-17.5h-27l-20 17.5a155.1 155.1 0 0 1-23.5 18.6c-9.2 2.8-18-7.6-13.8-16.5.6-1.4 6.7-7.4 13.4-13.2 6.8-5.8 12.2-11 11.9-11.4-.3-.4-1.7-1-3.2-1.5-1.6-.3-5.4-2-8.6-3.6-3.2-1.6-7.1-2.9-8.7-2.9-1.7 0-16.6 2.5-33.2 5.5-109 20-191.3 44-248.6 72.5-53.7 26.8-86.9 57.8-98 91.6-3 9.3-3.4 11.4-1.9 11.4.7 0 6.5-2.7 12.8-6 6.3-3.3 12-6 12.7-6 1 0 1.2 19.5 1 95.8l-.3 95.7-9 4.7a50 50 0 0 1-11.6 4.7c-1.6 0-6.9-2.5-13.2-6.2zM235.5 242a610 610 0 0 0 31.3-23.6c3.7-4.2 2.5-12.6-2.3-15.8-1.3-.8-17.5-9.5-36.1-19.2-30-15.7-34.5-17.8-38.7-17.8-4.3 0-5.2.3-7.8 3.2a9.5 9.5 0 0 0-2.9 7.3c0 4.6 11.5 74.8 13.1 79.6 1.5 4.6 5.3 7.3 10.3 7.3 3.7 0 6.7-1.9 33.1-21zm767.8 11.7a16 16 0 0 0 4.5-5.4c1.6-3.9 11.4-62.7 11.4-68.5a14 14 0 0 0-14.7-14.8c-4.2 0-8.3 1.8-33.9 15-35.6 18.5-37.5 20.2-36.6 31 .1 1.4.8 3.7 1.6 5.2 1.3 2.6 45 35.2 52.4 39a14.7 14.7 0 0 0 15.3-1.5zM509 208.5c22.3-3 33.7-9 30-15.9-5-9.6-42.4-15.3-73-11.1-22.3 3-33.7 9-30 15.9 5 9.6 42.5 15.3 73 11.1zm225 0c22.3-3 33.7-9 30-15.9-5-9.6-42.4-15.3-73-11.1-22.3 3-33.7 9-30 15.9 5 9.6 42.5 15.3 73 11.1zM891 599a1010.6 1010.6 0 0 0-50.8-10.5l-2.2-.4v-96c0-77.4.2-96 1.3-96a761 761 0 0 1 66 14.1c1.6 1 1.7 6.3 1.5 96.2-.3 83.7-.5 95.2-1.8 95.4-.8 0-7.1-1.2-14-2.8zm-177-26c-4.7-.4-18.6-1.2-31-1.9-12.4-.6-23.4-1.3-24.6-1.5l-2-.5v-93.2c0-51.3.2-94.4.6-95.8.6-2.5.7-2.5 10.6-2.2 14.4.4 55.6 3.2 56.6 3.8.4.3.8 43.4.8 95.9 0 75.3-.3 95.4-1.3 95.7-.6.2-5 0-9.7-.3z" fill="#d7b4dd"/><path d="M114.9 475.8c-2-10.9-1.7-43 .5-54.8a218.8 218.8 0 0 1 33-83c5.3-8 12.3-17.2 25.4-33.2l2.3-2.8-12-73c-6.7-40.2-12-74.5-12-76.3 0-11.4 12.8-21.9 24.6-20.1 2.6.4 28.8 13.4 73.4 36.6l69.4 36 15-6a705.7 705.7 0 0 1 221-47.3c25.3-1.5 88.5-.6 112 1.5 71.1 6.6 138 21.9 195.3 44.6l13.4 5.3 5.6-2.7c3-1.5 35-18 71-36.8 70.3-36.4 70.9-36.7 79.6-33.8a21.9 21.9 0 0 1 14.6 19.7c0 2.6-5.4 37.8-12 78l-12.2 73.3 7 8.3c31.2 37.1 47.2 69.6 54.8 111.7 3.2 17.3 1.9 62-1.7 62-.6 0-5-2.8-9.8-6.3-4.8-3.5-12.4-8.5-17-11-7.4-4.5-8.2-5.2-9.1-9-7.2-27.6-27.3-52.5-61-75.6-56.5-38.8-153-70.7-288.8-95.6-16.6-3-31.2-5.5-32.5-5.5-3.3 0-18.2 6.7-18.2 8.3 0 .7 5.4 6 12 11.9 13.7 12 15.5 14.7 13.6 20.9-2 7-11.3 10.2-17.1 6.2-1.4-1-11-9.1-21.3-18.2l-18.9-16.4-14 .2-14.1.2-18.6 16.2c-10.2 9-19.7 17-21 18-6 4-15.1.7-17.2-6.2-1.9-6.2 0-9 13.5-20.9 6.7-5.8 12.1-11 12.1-11.5 0-1.4-17.5-8.7-20.7-8.7-1.6 0-16.4 2.5-33 5.5-109 20-191.3 44-248.6 72.5-57.4 28.6-90.8 61.5-100.2 98.7-1 3.8-1.7 4.5-9.2 9-4.5 2.5-12 7.5-17 11a68.6 68.6 0 0 1-9.7 6.3c-.5 0-1.5-3.3-2.2-7.3zM235.5 242a610 610 0 0 0 31.3-23.6c3.7-4.2 2.5-12.6-2.3-15.8-1.3-.8-17.5-9.5-36.1-19.2-30-15.7-34.5-17.8-38.7-17.8-4.3 0-5.2.3-7.8 3.2a9.5 9.5 0 0 0-2.9 7.3c0 4.6 11.5 74.8 13.1 79.6 1.5 4.6 5.3 7.3 10.3 7.3 3.7 0 6.7-1.9 33.1-21zm767.8 11.7a16 16 0 0 0 4.5-5.4c1.6-3.9 11.4-62.7 11.4-68.5a14 14 0 0 0-14.7-14.8c-4.2 0-8.3 1.8-33.9 15-35.6 18.5-37.5 20.2-36.6 31 .1 1.4.8 3.7 1.6 5.2 1.3 2.6 45 35.2 52.4 39a14.7 14.7 0 0 0 15.3-1.5zM509 208.5c22.3-3 33.7-9 30-15.9-5-9.6-42.4-15.3-73-11.1-22.3 3-33.7 9-30 15.9 5 9.6 42.5 15.3 73 11.1zm225 0c22.3-3 33.7-9 30-15.9-5-9.6-42.4-15.3-73-11.1-22.3 3-33.7 9-30 15.9 5 9.6 42.5 15.3 73 11.1z" fill="#f1b65a"/><path d="M536.3 327.5c-3.6-1.5-6.3-6-6.3-10.5 0-3.7 4-8.2 17.4-19.5a58 58 0 0 0 9.5-9.2c0-.6-1.6-1.7-3.6-2.4-6.4-2-13.6-6-17-9.2-4.5-4.3-4.6-9-.1-13.6 20.2-20.7 107.4-20.7 127.6 0 4.4 4.6 4.4 9.3 0 13.6-3.2 3-15 9.3-17.6 9.3-3.3 0-.2 4.2 8.4 11.5C668 308.8 672 313.3 672 317c0 7.2-6.6 13-13.1 11.5-1.8-.4-10.8-7.5-23.5-18.6L614.9 292H587.2l-20 17.5c-23.4 20.3-24.4 20.9-30.9 18zM444.7 268c-18-5.7-22.5-19.6-9.5-29 18-13 52-4.7 52 12.7 0 13.1-23.8 22.3-42.5 16.3zm285 0c-18-5.7-22.5-19.6-9.5-29 18-13 52-4.7 52 12.7 0 13.1-23.8 22.3-42.5 16.3z" fill="#5d5d5c"/></svg>