<svg xmlns="http://www.w3.org/2000/svg" width="512" height="512" viewBox="0 0 135.467 135.467"><path d="M28.32 88.472c-.299-.22-.347-4.475-.29-25.4l.068-25.135 6.218-.133 6.217-.132.069-6.085c.053-4.709.149-6.146.423-6.35.219-.164 2.685-.236 6.48-.19l6.125.076v12.672l-6.284.07-6.284.072v37.835l5.92.071c4.144.05 6.03-.019 6.284-.23.3-.25.364-2.5.364-12.706V50.504h12.7v12.403c0 10.205.065 12.457.364 12.706.255.211 2.14.28 6.284.23l5.92-.07V37.936l-6.284-.071-6.284-.071v-12.67l6.126-.076c3.794-.047 6.26.025 6.48.189.274.205.37 1.641.422 6.35l.07 6.085 6.217.133 6.217.132.068 25.21c.054 20.027 0 25.235-.265 25.336-.694.265-62.983.255-63.345-.01z" fill="#b07ce0"/><path d="M33.125 135.51c-.582-.06-1.171-.22-1.31-.357a1.023 1.023 0 0 0-.623-.246c-.89 0-3.884-1.734-5.368-3.108-6.78-6.277-8.912-18.309-5.124-28.907.39-1.091 1.36-3.203 2.154-4.692.794-1.49 1.38-2.813 1.3-2.941-.08-.128-1.136-.79-2.347-1.47-4.931-2.767-10.041-7.437-12.994-11.876-2.884-4.333-5.461-10.824-6.326-15.93-.756-4.462-1.051-7.235-.906-8.514.94-8.287 2.195-12.902 5.058-18.598 2.81-5.59 7.516-11.812 11.87-15.692 1.848-1.648 2.17-2.098 3.971-5.556C29.207 4.707 34.756-.496 40.288.927c1.715.442 4.407 1.815 6.066 3.095 1.709 1.319 6.129 5.702 7.986 7.92l1.717 2.05h9.944l1.277-1.521c2.025-2.413 6.183-6.613 7.916-7.997 2.086-1.667 4.652-3.047 6.595-3.547 5.625-1.447 11.657 4.369 18.325 17.666 1.076 2.145 1.579 2.775 4.564 5.718 5.835 5.752 10.108 12.04 12.583 18.516.762 1.994.708 1.955 3.118 2.232 2.922.336 6.065 2.693 7.507 5.63.683 1.392.754 1.795.754 4.313 0 2.34-.093 2.966-.59 3.97-1.717 3.47-2.735 4.548-5.01 5.305-2.128.708-2.736 1.435-2.73 3.263.005 1.952.586 4.142 2.112 7.969 3.343 8.378 4.195 17.04 2.505 25.458-3.067 15.276-13.005 26.742-25.395 29.302-1.802.372-2.251.583-3.29 1.55-1.46 1.357-2.642 2.1-4.834 3.036l-1.662.71-27.781.027c-15.28.015-28.258-.022-28.84-.082zm57.675-5.63c.725-.364 2.049-1.406 2.941-2.316 1.451-1.479 1.734-1.653 2.674-1.653 1.742 0 5.093-.982 7.618-2.232 8.05-3.984 14.103-12.914 16.332-24.094 1.05-5.26.734-12.56-.77-17.86-.679-2.39-2.234-6.085-2.559-6.082-.166.002-.935 1.232-1.707 2.735-.773 1.502-2.174 3.733-3.115 4.957a179.635 179.635 0 0 0-2.1 2.776c-.336.47-.347.958-.08 3.415 1.002 9.165-3.073 19.479-9.35 23.67-.883.59-1.75 1.073-1.927 1.073-.22 0-.337-.665-.374-2.132-.112-4.555-1.257-7.99-4.672-14.008-.62-1.09-1.337-2.637-1.596-3.436-.258-.799-.688-1.81-.955-2.249-.267-.438-.487-.872-.487-.965 0-.092.684-.44 1.52-.772 5.401-2.146 9.372-4.83 12.952-8.754 3.816-4.183 5.44-7.003 7.202-12.507 1.482-4.628 1.69-5.979 1.7-11.004.007-4.433-.03-4.766-.865-7.805a259.32 259.32 0 0 1-1.067-3.969c-.574-2.34-3.428-7.698-6.012-11.288-1.7-2.362-3.327-4.11-6.921-7.438-2.358-2.183-2.555-2.453-4.323-5.936-3.186-6.275-5.709-10.25-8.184-12.897-2.023-2.163-2.92-2.503-4.614-1.754-2.496 1.105-6.574 4.936-11.007 10.343l-1.946 2.373-8.07.003-8.07.003-1.846-2.315c-1.016-1.273-3.4-3.872-5.3-5.776-2.71-2.715-3.828-3.645-5.189-4.315-2.106-1.037-2.643-.956-4.45.668-2.444 2.198-5.356 6.653-8.968 13.723-1.887 3.692-1.902 3.713-4.927 6.482-7.367 6.745-12.085 14.78-13.826 23.548-.554 2.785-.606 9.339-.097 12.17.458 2.55 1.92 7.164 3.068 9.686 3.355 7.36 10.113 13.585 17.921 16.506 1.632.61 1.967.906 1.592 1.403-.132.176-.701 1.51-1.264 2.965-.563 1.455-1.58 3.677-2.261 4.936-.68 1.26-1.6 3.165-2.044 4.234-3.649 8.79-1.42 20.97 4.593 25.107 2.368 1.63.587 1.545 31.333 1.491l28.178-.05zm12.2-26.775c1.781-3.444 3.221-11.59 2.124-12.012-.2-.077-1.361.507-2.58 1.298-1.219.79-2.714 1.69-3.322 1.996-.609.308-1.184.684-1.279.837-.094.153.593 1.792 1.527 3.642.933 1.85 1.83 3.75 1.992 4.223.373 1.092.979 1.098 1.538.016zm19.585-44.522c1.25-1.305 1.562-2.307 1.363-4.38-.195-2.03-2.204-4.225-3.872-4.228-.561 0-.608.086-.463.86.374 2 .675 4.955.683 6.702.012 2.702.492 2.921 2.289 1.046z" fill="#4d4d4d"/><path d="M37.017 130.506c-3.477-.093-4.914-.253-5.769-.645-.858-.393-2.29-1.53-3.14-2.493-2.794-3.168-4.44-8.36-4.437-13.996.001-2.323.217-4.16.735-6.253.518-2.095 1.057-3.42 2.742-6.75 1.273-2.513 1.86-3.794 2.675-5.827.305-.762.73-1.755.943-2.209.376-.8.384-.83.26-1.019-.158-.24-.691-.512-2.086-1.066-7.357-2.916-13.6-8.57-17.036-15.43-1.016-2.03-2.24-5.462-3.004-8.43-.718-2.787-.808-3.66-.805-7.809.003-4.235.147-5.665.85-8.443 1.299-5.13 3.72-10.146 7.05-14.601 1.697-2.273 3.344-4.115 5.57-6.231 2.598-2.47 3.514-3.417 3.97-4.11.235-.36 1.042-1.832 1.792-3.27 2.776-5.325 4.625-8.42 6.504-10.885 1.54-2.022 3.24-3.611 4.202-3.929.928-.306 2.851.508 4.627 1.957.943.77 5.156 4.988 6.694 6.703a76.18 76.18 0 0 1 2.38 2.824l1.206 1.516 8.088.003 8.088.003 1.374-1.673c3.447-4.197 5.995-6.894 8.451-8.945 1.073-.896 2.48-1.832 3.25-2.162.518-.222.683-.256 1.25-.257.951-.003 1.35.23 2.699 1.574 2.68 2.67 4.909 6.08 8.485 12.983 1.98 3.822 2.164 4.088 4.13 5.94 2.142 2.017 4.354 4.225 5.244 5.233 2.266 2.567 4.553 6.105 6.53 10.104 1.038 2.102 1.268 2.728 2.031 5.552 1.475 5.454 1.355 4.682 1.4 8.999.059 5.747-.095 6.971-1.413 11.223-2.006 6.471-3.952 9.742-8.525 14.322-.92.921-2.057 1.97-2.635 2.43-2.49 1.98-5.077 3.492-8.33 4.867-.782.33-1.642.708-1.91.838-.584.283-.585.314-.065 1.245.3.538.547 1.122 1.22 2.884.283.741.942 2.089 1.561 3.196 2.514 4.492 3.715 7.503 4.187 10.501.19 1.204.223 1.549.315 3.303.087 1.655.158 2 .411 2 .324 0 1.953-1.001 2.987-1.837 1.968-1.59 3.847-4.016 5.25-6.778 1.566-3.083 2.525-6.273 3.019-10.039.184-1.405.187-4.948.004-6.53-.175-1.517-.174-2.395.004-2.743.075-.146.726-1.045 1.446-1.997 1.832-2.42 2.6-3.606 3.937-6.077.4-.74.92-1.639 1.153-1.997l.423-.651.154.19c.396.488 1.543 3.2 2.129 5.03 1.097 3.434 1.626 7.285 1.628 11.852 0 2.906-.164 4.768-.626 7.077-.837 4.187-2.46 8.626-4.413 12.077-.77 1.36-2.143 3.395-3.088 4.577-1.042 1.305-3.333 3.595-4.494 4.495-2.598 2.013-5.341 3.42-8.385 4.303-1.293.374-2.312.575-3.213.632-1.324.084-1.334.09-3.114 1.784-1.336 1.272-2.096 1.84-3.217 2.403l-.89.448-25.072.038c-13.79.021-26.112.01-27.381-.024zm51.785-41.915c1.572-.028 2.881-.073 2.908-.1.213-.212.232-2.537.213-26.29-.01-13.344-.027-24.27-.038-24.279-.018-.015-11.74-.272-12.221-.268l-.201.001-.054-4.404c-.058-4.72-.14-6.929-.28-7.582-.07-.326-.128-.426-.291-.498-.242-.105-9.088-.178-11.224-.092l-1.327.054v12.652l1.513.05c.831.028 2.398.051 3.48.051 1.083 0 3.241.023 4.796.051l2.827.05v37.729l-2.558.056c-2.816.06-9.05.009-9.387-.079-.118-.03-.248-.118-.29-.196-.215-.404-.245-1.79-.28-13.245l-.037-11.75H53.594l-.002 10.25c-.002 10.446-.062 14.006-.244 14.555-.075.226-.157.32-.33.374-.318.101-6.29.158-9.405.09l-2.558-.055V37.988l2.827-.05a333.32 333.32 0 0 1 4.796-.052c1.083 0 2.649-.023 3.48-.05l1.513-.051V25.133l-1.327-.054c-2.135-.086-10.982-.013-11.224.092-.161.071-.221.172-.289.487-.137.64-.225 3.045-.282 7.67l-.053 4.327-.2-.001c-.337-.003-12.202.251-12.216.261-.007.005-.036 10.014-.065 22.241-.05 21.444-.014 27.169.179 28.04.057.257.078.272.48.329 1.201.171 51.07.226 60.128.066zm32.013-28.838c-.307-.068-.39-.505-.497-2.599-.113-2.24-.237-3.508-.54-5.51-.112-.746-.183-1.412-.157-1.48.07-.18.79-.162 1.3.03.558.21 1.36.833 1.815 1.407.79.997 1.12 1.84 1.209 3.099.072 1.016-.045 1.766-.383 2.456-.581 1.189-2.199 2.718-2.747 2.597z" fill="#f0f0f0"/></svg>